<?xml version="1.0" encoding="utf-8"?>
<!-- Svg Vector Icons : http://www.onlinewebfonts.com/icon -->
<!DOCTYPE svg PUBLIC "-//W3C//DTD SVG 1.1//EN" "http://www.w3.org/Graphics/SVG/1.1/DTD/svg11.dtd">
<svg version="1.1" xmlns="http://www.w3.org/2000/svg" xmlns:xlink="http://www.w3.org/1999/xlink" x="0px" y="0px" viewBox="0 0 256 256" enable-background="new 0 0 256 256" xml:space="preserve">
<metadata> Svg Vector Icons : http://www.onlinewebfonts.com/icon </metadata>
<g><g><g><path fill="#FFFFFF" d="M124,3.2L122.3,5v10.9v10.9l2,2c1.4,1.4,2.5,2,3.8,2s2.4-0.6,3.8-2l2-2V15.8V4.7l-1.7-1.7C129.7,0.7,126.5,0.7,124,3.2z"/><path fill="#FFFFFF" d="M44.5,38.1c-1.5,1.3-1.8,2.1-1.8,4.1c0,2.4,0.2,2.7,7.6,10.1c7.5,7.5,7.5,7.5,10.2,7.5c3.5,0,5.4-2,5.4-5.8c0-2.5-0.2-2.8-6.4-9.3c-3.6-3.6-7.2-7-8.1-7.4C48.9,36,46.5,36.3,44.5,38.1z"/><path fill="#FFFFFF" d="M204.3,37.6c-0.9,0.6-4.5,3.9-7.9,7.4c-6,6.2-6.2,6.4-6.2,9c0,3.8,1.9,5.8,5.4,5.8c2.6,0,2.7-0.1,10.2-7.6c7.3-7.3,7.7-7.7,7.7-10c0-2-0.3-2.6-1.9-4C209.4,36.2,206.8,36,204.3,37.6z"/><path fill="#FFFFFF" d="M115.6,55.5C87,61.7,66.4,84.4,63.5,112.9c-1.3,12,0.7,25.4,5.5,36.6c2.5,5.9,6,11.5,14,22.3c3.7,4.9,7.7,10.5,8.9,12.5c2.4,4,5.2,11.2,5.8,15l0.4,2.5H128h29.8l0.7-3.6c1.5-7.7,4.4-13.1,13.6-25.3c13-17.3,17-25.5,19.5-39.4c1.3-7.5,1.4-19.6,0.1-26.2c-4.8-24.8-23.4-44.6-48-51C135.9,54.2,123.1,53.8,115.6,55.5z"/><path fill="#FFFFFF" d="M13.3,116.9c-1.7,0.9-3.3,3.5-3.3,5.1c0,1.8,1.8,4.4,3.7,5.2c2.9,1.2,19.9,1.2,22.5-0.1c4.4-2.1,4.4-8.2,0-10.4C33.5,115.6,15.6,115.6,13.3,116.9z"/><path fill="#FFFFFF" d="M216.9,116.9c-3.7,1.8-4.4,6.2-1.4,9.1l1.7,1.8l11.8,0.2c13,0.2,14.4-0.1,16.1-3.3c1.1-2.1,1.1-3.1,0-5.2c-1.6-3.1-3.1-3.5-15.4-3.5C221,116,218.4,116.2,216.9,116.9z"/><path fill="#FFFFFF" d="M61.5,179.9c-1.8,1-17,16.2-17.9,17.9c-2.3,4.4,1.3,9.2,6.3,8.3c1.5-0.3,3.9-2.4,10.9-9.4c7.8-7.9,9-9.4,9-10.9C69.9,181,65.3,177.8,61.5,179.9z"/><path fill="#FFFFFF" d="M189.1,180.1c-1.8,1-2.9,3.1-2.9,5.5c0,1.8,0.9,2.9,9,11.1c7,7.1,9.4,9.2,10.9,9.4c5,0.9,8.6-3.9,6.3-8.3c-1-1.8-16.2-17-18-17.9C192.7,179.1,190.8,179.2,189.1,180.1z"/><path fill="#FFFFFF" d="M98.8,230.1l0.2,16.9l1.7,2.4c1,1.5,2.7,2.9,4.5,3.9l2.9,1.4H128h19.9l2.9-1.4c1.8-0.9,3.5-2.4,4.5-3.9l1.7-2.4l0.2-16.9l0.2-16.9H128H98.6L98.8,230.1z"/></g></g></g>
</svg>